<?xml version="1.0" encoding="UTF-8"?>
<svg id="Layer_2" data-name="Layer 2" xmlns="http://www.w3.org/2000/svg" xmlns:xlink="http://www.w3.org/1999/xlink" viewBox="0 0 1920 1080">
  <defs>
    <style>
      .cls-1 {
        fill: url(#linear-gradient-2);
      }

      .cls-2 {
        fill: url(#linear-gradient-3);
      }

      .cls-3 {
        fill: url(#linear-gradient);
      }
    </style>
    <linearGradient id="linear-gradient" x1="294.72" y1="377.88" x2="611.59" y2="377.88" gradientUnits="userSpaceOnUse">
      <stop offset="0" stop-color="#f99c48"/>
      <stop offset="1" stop-color="#ed2f88"/>
    </linearGradient>
    <linearGradient id="linear-gradient-2" x1="526.53" y1="453.01" x2="769.37" y2="453.01" gradientUnits="userSpaceOnUse">
      <stop offset="0" stop-color="#2b2cc4"/>
      <stop offset="1" stop-color="#9460e2"/>
    </linearGradient>
    <linearGradient id="linear-gradient-3" x1="402.59" y1="585.81" x2="567.64" y2="585.81" gradientUnits="userSpaceOnUse">
      <stop offset="0" stop-color="#3ad0f9"/>
      <stop offset="1" stop-color="#3af9a2"/>
    </linearGradient>
  </defs>
  <g>
    <path class="cls-3" d="M611.59,423.73h-225.16c-50.65,0-91.71-41.06-91.71-91.71h0s225.16,0,225.16,0c50.65,0,91.71,41.06,91.71,91.71h0"/>
    <path class="cls-1" d="M769.37,341.38l-116.85,192.46c-26.29,43.29-82.69,57.08-125.99,30.8h0s116.85-192.46,116.85-192.46c26.29-43.29,82.69-57.08,125.99-30.8h0"/>
    <path class="cls-2" d="M518.93,747.24l-105.61-198.85c-23.76-44.73-6.75-100.26,37.98-124.01h0s105.61,198.85,105.61,198.85c23.76,44.73,6.75,100.26-37.98,124.01h0"/>
  </g>
  <g>
    <path d="M941.89,449.53c0,.31-.04,.5-.12,.58-.08,.08-.12,.27-.12,.58l-38.1,145.68c-1.39,5.42-3.41,9.68-6.04,12.78-2.64,3.1-5.46,5.46-8.48,7.09-3.02,1.63-6.12,2.67-9.29,3.14-3.18,.46-6,.7-8.48,.7s-5.31-.23-8.48-.7c-3.18-.46-6.27-1.51-9.29-3.14-3.02-1.63-5.85-3.99-8.48-7.09-2.64-3.1-4.65-7.36-6.04-12.78l-38.1-145.68c0-.31-.04-.5-.12-.58-.08-.08-.12-.27-.12-.58,0-1.24,.38-2.21,1.16-2.9,.77-.7,1.78-1.04,3.02-1.04h24.63c1.08,0,2.01,.39,2.79,1.16,.77,.78,1.31,1.71,1.63,2.79l33.69,139.64c.31,1.39,.7,2.36,1.16,2.9,.46,.54,1.31,.81,2.56,.81s2.09-.27,2.56-.81c.46-.54,.85-1.51,1.16-2.9l33.69-139.64c.31-1.08,.85-2.01,1.63-2.79,.77-.77,1.7-1.16,2.79-1.16h24.63c1.24,0,2.24,.35,3.02,1.04,.77,.7,1.16,1.67,1.16,2.9Z"/>
    <path d="M1066.54,615.42c-.7,.62-1.9,1.08-3.6,1.39-1.86,.31-3.91,.66-6.16,1.05-2.25,.38-5.04,.73-8.36,1.05-3.33,.31-7.36,.58-12.08,.81-4.73,.23-10.57,.35-17.54,.35-7.59,0-14.65-.62-21.18-1.86s-12.21-3.6-17.04-7.09c-4.84-3.48-8.66-8.32-11.47-14.52-2.81-6.19-4.21-14.25-4.21-24.16v-81.09c0-9.91,1.4-17.97,4.21-24.16,2.81-6.19,6.63-11.04,11.47-14.52s10.52-5.84,17.04-7.09c6.53-1.24,13.59-1.86,21.18-1.86,6.97,0,12.82,.12,17.54,.35,4.72,.23,8.75,.5,12.08,.81,3.33,.31,6.12,.66,8.36,1.05,2.24,.39,4.3,.74,6.16,1.04,1.7,.31,2.9,.78,3.6,1.39,.7,.62,1.05,1.78,1.05,3.49v14.87c0,1.24-.46,2.32-1.39,3.25s-2.02,1.39-3.25,1.39h-47.4c-6.82,0-11.58,1.39-14.29,4.18-2.71,2.79-4.07,8.06-4.07,15.8v25.09h62.97c1.24,0,2.32,.46,3.25,1.39,.93,.93,1.39,2.01,1.39,3.25v16.73c0,1.24-.46,2.32-1.39,3.25s-2.02,1.39-3.25,1.39h-62.97v29.97c0,7.75,1.35,13.01,4.07,15.8,2.71,2.79,7.47,4.18,14.29,4.18h47.4c1.24,0,2.32,.46,3.25,1.39,.93,.93,1.39,2.02,1.39,3.25v14.87c0,1.71-.35,2.87-1.05,3.49Z"/>
    <path d="M1226.63,615.54c-1.78,1.78-3.99,2.67-6.62,2.67h-23.47c-2.79,0-5.38-.35-7.78-1.05-2.4-.7-4.53-3.14-6.39-7.32l-51.58-113.15c-.62-1.24-1.32-1.86-2.09-1.86s-1.16,.62-1.16,1.86v116.87c0,1.24-.43,2.32-1.28,3.25-.85,.93-1.9,1.39-3.14,1.39h-19.75c-1.24,0-2.32-.46-3.25-1.39-.93-.93-1.39-2.01-1.39-3.25v-158.69c0-2.63,.89-4.84,2.67-6.62s3.99-2.67,6.62-2.67h25.09c2.48,0,4.45,.46,5.92,1.39,1.47,.93,2.9,2.94,4.3,6.04l54.14,119.43c.46,1.24,1.08,1.86,1.86,1.86s1.16-.7,1.16-2.09v-122.21c0-2.94,1.47-4.41,4.42-4.41h19.98c2.94,0,4.42,1.47,4.42,4.41v158.92c0,2.64-.89,4.84-2.67,6.62Z"/>
    <path d="M1386.95,580.45c-3.33,9.22-7.94,16.73-13.82,22.54-5.89,5.81-12.86,10.11-20.91,12.9-8.06,2.79-16.88,4.18-26.49,4.18s-18.43-1.39-26.49-4.18c-8.06-2.79-15.03-7.09-20.91-12.9-5.89-5.81-10.5-13.32-13.82-22.54-3.33-9.21-5-20.17-5-32.88v-31.37c0-12.86,1.66-23.85,5-32.99,3.33-9.14,7.94-16.61,13.82-22.42,5.88-5.81,12.86-10.11,20.91-12.9,8.05-2.79,16.88-4.18,26.49-4.18s18.43,1.39,26.49,4.18c8.05,2.79,15.02,7.09,20.91,12.9,5.88,5.81,10.49,13.28,13.82,22.42,3.33,9.14,5,20.14,5,32.99v31.37c0,12.7-1.67,23.66-5,32.88Zm-27.3-64.24c0-15.49-2.77-26.76-8.31-33.81-5.54-7.05-14.08-10.57-25.62-10.57s-20.08,3.53-25.62,10.57c-5.54,7.05-8.3,18.32-8.3,33.81v31.37c0,15.49,2.77,26.76,8.3,33.81,5.54,7.05,14.07,10.57,25.62,10.57s20.08-3.52,25.62-10.57c5.54-7.05,8.31-18.32,8.31-33.81v-31.37Z"/>
    <path d="M1523.45,469.97c-.93,.93-2.02,1.39-3.25,1.39h-47.4c-6.82,0-11.58,1.39-14.29,4.18-2.71,2.79-4.07,8.06-4.07,15.8v25.09h62.97c1.24,0,2.32,.46,3.25,1.39,.93,.93,1.39,2.01,1.39,3.25v16.73c0,1.24-.46,2.32-1.39,3.25s-2.02,1.39-3.25,1.39h-62.97v71.1c0,1.24-.47,2.32-1.41,3.25-.94,.93-2.03,1.39-3.27,1.39h-22.94c-1.25,0-2.34-.46-3.27-1.39-.94-.93-1.41-2.01-1.41-3.25v-122.21c0-9.91,1.4-17.97,4.21-24.16,2.81-6.19,6.63-11.04,11.47-14.52s10.52-5.84,17.04-7.09c6.53-1.24,13.59-1.86,21.18-1.86,6.97,0,12.82,.12,17.54,.35,4.72,.23,8.75,.5,12.08,.81,3.33,.31,6.12,.66,8.36,1.05,2.24,.39,4.3,.74,6.16,1.04,1.7,.31,2.9,.78,3.6,1.39,.7,.62,1.05,1.78,1.05,3.49v14.87c0,1.24-.46,2.32-1.39,3.25Z"/>
    <path d="M1675.87,449.06c0,.31-.16,.93-.46,1.86l-35.32,80.62c-2.17,5.11-4.41,8.95-6.74,11.5-2.32,2.56-4.8,4.38-7.44,5.46v65.06c0,1.24-.43,2.32-1.29,3.25-.86,.93-1.91,1.39-3.16,1.39h-23.4c-1.25,0-2.3-.46-3.16-1.39-.86-.93-1.29-2.01-1.29-3.25v-65.06c-2.64-1.08-5.11-2.9-7.43-5.46-2.32-2.56-4.57-6.39-6.74-11.5l-35.08-80.62c-.31-.93-.46-1.55-.46-1.86,0-.93,.31-1.74,.93-2.44,.62-.7,1.55-1.04,2.79-1.04h25.79c1.08,0,2.01,.39,2.79,1.16,.77,.78,1.31,1.63,1.63,2.56l27.97,69.24c.78,2.01,1.52,3.29,2.22,3.83,.7,.54,1.29,.81,1.76,.81,.62,0,1.29-.27,1.99-.81,.7-.54,1.44-1.82,2.22-3.83l27.97-69.24c.31-.93,.85-1.78,1.63-2.56,.77-.77,1.7-1.16,2.79-1.16h25.56c1.24,0,2.21,.35,2.9,1.04,.7,.7,1.04,1.51,1.04,2.44Z"/>
  </g>
</svg>